<?xml version="1.0" standalone="no"?>
<!DOCTYPE svg PUBLIC "-//W3C//DTD SVG 20010904//EN"
 "http://www.w3.org/TR/2001/REC-SVG-20010904/DTD/svg10.dtd">
<svg version="1.0" xmlns="http://www.w3.org/2000/svg"
 width="96.000000pt" height="96.000000pt" viewBox="0 0 96.000000 96.000000"
 preserveAspectRatio="xMidYMid meet">

<g transform="translate(0.000000,96.000000) scale(0.100000,-0.100000)"
fill="#000000" stroke="none">
<path d="M84 802 c3 -43 12 -102 20 -130 12 -47 11 -57 -7 -109 -55 -164 41
-346 232 -441 67 -33 84 -37 151 -37 68 0 84 4 152 38 191 94 286 276 231 440
-18 52 -19 62 -7 109 20 74 30 208 16 208 -18 0 -165 -49 -191 -64 -21 -12
-31 -12 -65 2 -27 10 -74 15 -136 15 -62 0 -109 -5 -136 -15 -34 -14 -44 -14
-65 -2 -26 15 -173 64 -191 64 -7 0 -9 -24 -4 -78z m288 -272 c26 -32 34 -70
17 -82 -25 -16 -101 -2 -121 22 -26 32 -34 70 -17 82 25 16 101 2 121 -22z
m332 24 c40 -15 -5 -99 -58 -110 -46 -8 -86 2 -86 22 0 27 30 75 53 84 26 10
69 12 91 4z m-144 -203 c0 -10 -67 -71 -78 -71 -12 0 -82 61 -82 71 0 5 36 9
80 9 44 0 80 -4 80 -9z"/>
</g>
</svg>
