<?xml version="1.0" standalone="no"?>
<!DOCTYPE svg PUBLIC "-//W3C//DTD SVG 20010904//EN"
 "http://www.w3.org/TR/2001/REC-SVG-20010904/DTD/svg10.dtd">
<svg version="1.0" xmlns="http://www.w3.org/2000/svg"
 width="100.000000pt" height="100.000000pt" viewBox="0 0 100.000000 100.000000"
 preserveAspectRatio="xMidYMid meet">

<g transform="translate(0.000000,100.000000) scale(0.100000,-0.100000)"
fill="#000000" stroke="none">
<path d="M262 981 c-94 -32 -151 -110 -152 -205 0 -48 33 -126 53 -126 5 0 6
-12 2 -27 -4 -16 -11 -46 -16 -68 -10 -49 8 -468 22 -512 20 -62 74 -50 83 20
45 334 58 381 99 375 34 -5 47 -63 53 -227 3 -80 7 -156 10 -168 8 -42 64 -53
79 -15 3 9 18 73 31 142 14 69 34 143 44 165 l18 40 15 -36 c9 -19 21 -93 28
-164 11 -112 16 -133 35 -152 27 -27 34 -28 60 -9 21 16 31 107 33 292 l1 91
41 27 c64 43 81 93 77 226 -4 139 -12 149 -71 92 -40 -39 -46 -42 -99 -42 -55
0 -57 1 -85 42 -15 23 -32 42 -37 42 -5 1 -18 -12 -30 -27 -29 -39 -31 -193
-3 -249 24 -48 62 -86 104 -103 23 -10 31 -19 27 -29 -7 -20 -16 -20 -57 -2
-46 19 -101 86 -120 147 -19 56 -22 142 -7 204 8 34 6 44 -14 70 -55 72 -120
69 -201 -10 -49 -48 -65 -50 -65 -9 0 93 132 156 217 104 17 -10 37 -28 42
-39 16 -29 49 -36 72 -15 32 29 24 63 -26 110 -68 66 -158 81 -263 45z m391
-412 c10 -13 16 -16 19 -8 2 7 10 9 16 5 18 -11 4 -26 -23 -26 -21 0 -45 24
-45 44 0 13 20 4 33 -15z m167 15 c0 -20 -24 -44 -45 -44 -28 0 -43 19 -24 31
9 5 16 3 21 -9 6 -15 8 -14 14 6 5 19 34 33 34 16z"/>
</g>
</svg>
