<svg width="38" height="50" viewBox="0 0 38 50" fill="none" xmlns="http://www.w3.org/2000/svg">
<path d="M7.49784 0.929723C2.86102 2.50822 0.0493279 6.35579 0 10.9926C0 13.5083 0.493279 14.8402 2.1211 16.616C2.71303 17.3066 2.95967 17.9972 2.76236 18.5891C1.72648 21.2528 1.52917 24.9524 2.02244 34.9167C2.26908 40.7867 2.71303 46.3114 3.009 47.1993C3.99556 50.2576 6.65927 49.6657 7.10322 46.2127C9.32297 29.7372 9.96424 27.4188 11.9867 27.7148C13.6638 27.9614 14.3051 30.8224 14.6011 38.9122C14.749 42.8584 14.9464 46.6074 15.0943 47.1993C15.489 49.2217 18.2513 49.8137 18.9419 48.0379C19.0899 47.6433 19.7805 44.4863 20.4711 41.0826C21.1617 37.6297 22.1482 33.9301 22.6415 32.8449L23.5787 30.8224L24.3187 32.5489C24.7133 33.5355 25.3545 37.0871 25.6505 40.4414C25.9958 43.845 26.4398 47.002 26.6864 47.4459C27.7223 49.4191 30.1394 49.6164 31.0766 47.8406C31.3232 47.3966 31.6685 43.0064 31.8658 38.123L32.2111 29.2439L33.5923 28.7507C34.3322 28.4547 35.5654 27.2708 36.3547 26.087C37.6865 24.0645 37.7358 23.7685 37.7358 17.9479C37.7358 10.3514 37.3906 9.80875 34.3816 12.7191C32.4084 14.6429 32.1125 14.7909 29.4981 14.7909C26.6864 14.7909 26.6864 14.7909 25.1079 12.4725L23.5294 10.154L22.1976 11.7325L20.8657 13.3604L19.4845 11.3379C17.758 8.87152 15.7849 7.39168 14.1571 7.39168C12.7266 7.39168 9.61894 9.3648 7.79381 11.4366C6.3633 13.0644 5.42607 12.9164 5.42607 11.0419C5.42607 7.83563 8.87902 4.97461 12.7266 4.92528C14.7984 4.92528 16.1302 5.61587 18.1033 7.68765C19.9285 9.61144 20.7177 9.75942 21.9016 8.42757C23.2334 6.99706 22.4935 4.7773 20.0765 2.70553C16.7715 -0.155491 12.3813 -0.747426 7.49784 0.929723ZM17.906 3.44545C19.7312 4.67864 20.9644 6.30647 20.5204 6.79974C20.3231 6.94773 19.4845 6.40512 18.5966 5.51722C15.8836 2.90284 12.5293 2.26158 8.97768 3.74141C3.84758 5.86251 1.72648 11.9792 5.22876 14.7415C6.7086 15.9254 7.39919 15.7281 8.4844 13.8536C9.42163 12.1765 13.0719 9.3648 14.3051 9.3648C15.2423 9.3648 17.0181 11.1899 18.9419 14.0509C19.9778 15.5801 20.2244 16.616 20.2244 18.8851C20.2244 20.4636 20.5697 22.5353 21.0137 23.5712C22.4935 27.1228 26.933 30.5265 28.2649 29.1453C28.9062 28.504 28.5609 28.1094 25.6505 26.5309C22.7895 24.9031 21.3097 18.9837 22.7402 14.8402L23.2828 13.311L24.6146 15.0868C25.8972 16.8626 25.8972 16.912 29.4981 16.8626C32.8031 16.8626 33.2963 16.7147 34.6282 15.4321L36.108 14.0509L35.9107 18.8358C35.7627 24.2618 35.0228 25.7417 31.9152 27.2708L30.09 28.2081V31.957C30.09 34.0288 29.942 38.271 29.7447 41.3293C29.3994 47.6926 28.5609 48.5312 27.9689 43.1051C26.8344 32.4996 26.1438 29.9839 24.1707 29.3426C21.9016 28.652 20.7177 30.8224 18.9912 38.9615C18.2513 42.3652 17.5114 45.5715 17.3141 46.1141C17.0675 46.6567 16.8208 43.845 16.6235 39.4548C16.4755 35.2619 16.0809 30.9211 15.7356 29.8359C14.9957 27.2215 13.5158 25.643 11.74 25.643C8.68171 25.643 7.34986 28.8986 6.06733 39.5535C5.57405 43.3024 5.08077 46.3607 4.88346 46.3607C4.48884 46.3607 3.94623 36.4458 3.79825 27.6161C3.69959 23.078 3.8969 21.4501 4.63682 19.5263L5.57405 17.1586L4.29153 16.0734C2.61438 14.6429 1.97312 13.2617 1.97312 10.8446C1.97312 8.42757 3.55161 5.27058 5.37674 4.08671C9.02701 1.71897 14.9464 1.423 17.906 3.44545Z" fill="black"/>
<path d="M34.2336 20.1183C33.9376 20.3156 33.543 20.9075 33.3457 21.4501C33.0004 22.338 32.9017 22.338 32.6057 21.5981C32.4084 21.0062 32.0631 20.9075 31.6192 21.1542C30.6819 21.7461 31.4219 22.6833 32.803 22.6833C33.4936 22.6833 34.2336 22.2394 34.5295 21.6474C35.1708 20.4636 35.0228 19.5757 34.2336 20.1183Z" fill="black"/>
<path d="M25.1572 20.5129C25.1572 21.4995 26.3411 22.6833 27.377 22.6833C28.7088 22.6833 29.3994 21.9434 28.5115 21.4008C28.2156 21.2035 27.8209 21.3022 27.7223 21.6474C27.5743 22.0421 27.2783 21.8941 26.785 21.2528C26.1438 20.3156 25.1572 19.8716 25.1572 20.5129Z" fill="black"/>
</svg>
