<svg width="126" height="45" viewBox="0 0 126 45" fill="none" xmlns="http://www.w3.org/2000/svg">
<path d="M31.0156 34H3.21875C2.78125 34 2.375 33.9219 2 33.7656C1.625 33.6094 1.29688 33.3984 1.01562 33.1328C0.75 32.8516 0.539062 32.5234 0.382812 32.1484C0.226562 31.7734 0.148438 31.3672 0.148438 30.9297V0.390625H6.24219V27.9062H31.0156V34ZM62.375 25.4453C62.375 26.4922 62.2422 27.4375 61.9766 28.2812C61.7109 29.1094 61.3594 29.8438 60.9219 30.4844C60.4844 31.1094 59.9766 31.6484 59.3984 32.1016C58.8203 32.5391 58.2109 32.8984 57.5703 33.1797C56.9453 33.4609 56.3047 33.6719 55.6484 33.8125C55.0078 33.9375 54.3984 34 53.8203 34H42.8281C41.9844 34 41.0625 33.8516 40.0625 33.5547C39.0625 33.2578 38.1328 32.7734 37.2734 32.1016C36.4297 31.4141 35.7188 30.5312 35.1406 29.4531C34.5781 28.3594 34.2969 27.0234 34.2969 25.4453V17.1953C34.2969 15.6328 34.5781 14.3125 35.1406 13.2344C35.7188 12.1406 36.4297 11.2578 37.2734 10.5859C38.1328 9.89844 39.0625 9.40625 40.0625 9.10938C41.0625 8.8125 41.9844 8.66406 42.8281 8.66406H53.8203C55.3828 8.66406 56.7109 8.94531 57.8047 9.50781C58.8984 10.0703 59.7812 10.7812 60.4531 11.6406C61.125 12.4844 61.6094 13.4062 61.9062 14.4062C62.2188 15.4062 62.375 16.3359 62.375 17.1953V25.4453ZM56.2812 17.2422C56.2812 16.3984 56.0703 15.7734 55.6484 15.3672C55.2266 14.9609 54.6172 14.7578 53.8203 14.7578H42.875C42.0625 14.7578 41.4453 14.9688 41.0234 15.3906C40.6016 15.7969 40.3906 16.3984 40.3906 17.1953V25.4453C40.3906 26.2422 40.6016 26.8516 41.0234 27.2734C41.4453 27.6953 42.0625 27.9062 42.875 27.9062H53.8203C54.6484 27.9062 55.2656 27.6953 55.6719 27.2734C56.0781 26.8516 56.2812 26.2422 56.2812 25.4453V17.2422ZM95.1406 36.4375C95.1406 37.4844 95.0078 38.4219 94.7422 39.25C94.4766 40.0938 94.125 40.8281 93.6875 41.4531C93.25 42.0938 92.7422 42.6328 92.1641 43.0703C91.5859 43.5234 90.9766 43.8906 90.3359 44.1719C89.7109 44.4531 89.0703 44.6562 88.4141 44.7812C87.7734 44.9219 87.1641 44.9922 86.5859 44.9922H75.5938V38.8984H86.5859C87.4141 38.8984 88.0312 38.6875 88.4375 38.2656C88.8438 37.8438 89.0469 37.2344 89.0469 36.4375V17.1953C89.0469 16.3984 88.8438 15.7969 88.4375 15.3906C88.0312 14.9688 87.4141 14.7578 86.5859 14.7578H75.5938C74.8438 14.7578 74.25 14.9922 73.8125 15.4609C73.375 15.9141 73.1562 16.4922 73.1562 17.1953V25.4453C73.1562 26.2422 73.3672 26.8516 73.7891 27.2734C74.2109 27.6953 74.8281 27.9062 75.6406 27.9062H86.5859V34H75.5938C75.0156 34 74.4062 33.9375 73.7656 33.8125C73.125 33.6719 72.4844 33.4609 71.8438 33.1797C71.2188 32.8984 70.6172 32.5391 70.0391 32.1016C69.4609 31.6484 68.9531 31.1094 68.5156 30.4844C68.0781 29.8438 67.7266 29.1094 67.4609 28.2812C67.1953 27.4375 67.0625 26.4922 67.0625 25.4453V17.1953C67.0625 16.6172 67.125 16.0078 67.25 15.3672C67.3906 14.7266 67.6016 14.0938 67.8828 13.4688C68.1641 12.8281 68.5234 12.2188 68.9609 11.6406C69.4141 11.0625 69.9531 10.5547 70.5781 10.1172C71.2188 9.67969 71.9531 9.32812 72.7812 9.0625C73.6094 8.79688 74.5469 8.66406 75.5938 8.66406H86.5859C87.1641 8.66406 87.7734 8.73438 88.4141 8.875C89.0703 9 89.7109 9.20312 90.3359 9.48438C90.9766 9.76562 91.5859 10.1328 92.1641 10.5859C92.7422 11.0234 93.25 11.5625 93.6875 12.2031C94.125 12.8281 94.4766 13.5547 94.7422 14.3828C95.0078 15.2109 95.1406 16.1484 95.1406 17.1953V36.4375ZM125.211 25.4453C125.211 26.4922 125.078 27.4375 124.812 28.2812C124.547 29.1094 124.195 29.8438 123.758 30.4844C123.32 31.1094 122.812 31.6484 122.234 32.1016C121.656 32.5391 121.047 32.8984 120.406 33.1797C119.781 33.4609 119.141 33.6719 118.484 33.8125C117.844 33.9375 117.234 34 116.656 34H100.156V27.9062H116.609C117.438 27.9062 118.062 27.6953 118.484 27.2734C118.906 26.8516 119.117 26.2422 119.117 25.4453C119.039 23.8203 118.219 23.0078 116.656 23.0078H107.211C105.867 23.0078 104.727 22.7734 103.789 22.3047C102.852 21.8359 102.086 21.25 101.492 20.5469C100.914 19.8438 100.492 19.0859 100.227 18.2734C99.9766 17.4609 99.8516 16.7031 99.8516 16C99.8516 14.6406 100.094 13.5 100.578 12.5781C101.062 11.6406 101.672 10.8828 102.406 10.3047C103.141 9.72656 103.938 9.3125 104.797 9.0625C105.656 8.79688 106.461 8.66406 107.211 8.66406H122.188V14.7578H107.258C106.945 14.7578 106.695 14.7969 106.508 14.875C106.336 14.9375 106.203 15.0312 106.109 15.1562C106.031 15.2656 105.984 15.3906 105.969 15.5312C105.953 15.6562 105.945 15.7812 105.945 15.9062C105.961 16.1562 106.008 16.3516 106.086 16.4922C106.164 16.6328 106.258 16.7344 106.367 16.7969C106.492 16.8594 106.625 16.8984 106.766 16.9141C106.922 16.9141 107.07 16.9141 107.211 16.9141H116.656C118.219 16.9141 119.547 17.1953 120.641 17.7578C121.734 18.3203 122.617 19.0312 123.289 19.8906C123.961 20.7344 124.445 21.6562 124.742 22.6562C125.055 23.6562 125.211 24.5859 125.211 25.4453Z" fill="black"/>
</svg>
